<?xml version="1.0" encoding="utf-8"?>
<!-- Generator: Adobe Illustrator 16.0.3, SVG Export Plug-In . SVG Version: 6.00 Build 0)  -->
<!DOCTYPE svg PUBLIC "-//W3C//DTD SVG 1.1//EN" "http://www.w3.org/Graphics/SVG/1.1/DTD/svg11.dtd">
<svg version="1.1" id="圖層_1" xmlns="http://www.w3.org/2000/svg" xmlns:xlink="http://www.w3.org/1999/xlink" x="0px" y="0px"
	 width="60px" height="365px" viewBox="0 0 60 365" enable-background="new 0 0 60 365" xml:space="preserve">
<g>
	<g>
		<g>
			<rect x="38" y="140" fill="#DCDDDD" width="11" height="33"/>
		</g>
		<g>
			<rect x="38" y="140" fill="#B5B5B6" width="5" height="33"/>
		</g>
		<g>
			<path fill="#1D2129" d="M44.85,174h-7c-0.554,0-1.849-0.654-1.849-1.207v-33c0-0.553,1.295-0.793,1.849-0.793h12
				c0.553,0,0.15,0.24,0.15,0.793v12c0,0.553-0.447,1-1,1s-1-0.447-1-1V141H38v31h6.85c0.553,0,1,0.447,1,1S45.4,174,44.85,174z"/>
		</g>
	</g>
	<g>
		<g>
			<rect x="41" y="145" fill="#FFFFFF" width="4" height="3"/>
		</g>
		<g>
			<path fill="#1D2129" d="M46,148.5c0,0.276-0.225,0.5-0.5,0.5h-5c-0.275,0-0.5-0.224-0.5-0.5v-4c0-0.276,0.225-0.5,0.5-0.5h5
				c0.275,0,0.5,0.224,0.5,0.5V148.5z M41,148h4v-3h-4V148z"/>
		</g>
	</g>
	<g>
		<g>
			<rect x="41" y="152" fill="#FFFFFF" width="4" height="3"/>
		</g>
		<g>
			<path fill="#1D2129" d="M46,155.5c0,0.276-0.225,0.5-0.5,0.5h-5c-0.275,0-0.5-0.224-0.5-0.5v-4c0-0.276,0.225-0.5,0.5-0.5h5
				c0.275,0,0.5,0.224,0.5,0.5V155.5z M41,155h4v-3h-4V155z"/>
		</g>
	</g>
	<g>
		<g>
			<path fill="#FFFFFF" d="M38,171c0,1.104-0.896,2-2,2H10c-1.104,0-2-0.896-2-2v-38c0-1.104,0.896-2,2-2h26c1.104,0,2,0.896,2,2
				V171z"/>
		</g>
		<g>
			<path fill="#1D2129" d="M39,171c0,1.657-1.343,3-3,3H10c-1.657,0-3-1.343-3-3v-38c0-1.657,1.343-3,3-3h26c1.657,0,3,1.343,3,3
				V171z M37,133c0-0.552-0.447-1-1-1H10c-0.552,0-1,0.448-1,1v38c0,0.552,0.448,1,1,1h26c0.553,0,1-0.448,1-1V133z"/>
		</g>
	</g>
	<g>
		<g>
			<rect x="15" y="137" fill="#BBE8EF" width="3" height="3"/>
		</g>
		<g>
			<polyline fill="#A3D5E0" points="18,137 18,140 15,140 			"/>
		</g>
		<g>
			<path fill="#1D2129" d="M19,140.5c0,0.276-0.224,0.5-0.5,0.5h-4c-0.276,0-0.5-0.224-0.5-0.5v-4c0-0.276,0.224-0.5,0.5-0.5h4
				c0.276,0,0.5,0.224,0.5,0.5V140.5z M15,140h3v-3h-3V140z"/>
		</g>
	</g>
	<g>
		<g>
			<rect x="22" y="137" fill="#BBE8EF" width="3" height="3"/>
		</g>
		<g>
			<polyline fill="#A3D5E0" points="25,137 25,140 22,140 			"/>
		</g>
		<g>
			<path fill="#1D2129" d="M26,140.5c0,0.276-0.224,0.5-0.5,0.5h-4c-0.276,0-0.5-0.224-0.5-0.5v-4c0-0.276,0.224-0.5,0.5-0.5h4
				c0.276,0,0.5,0.224,0.5,0.5V140.5z M22,140h3v-3h-3V140z"/>
		</g>
	</g>
	<g>
		<g>
			<rect x="29" y="137" fill="#BBE8EF" width="3" height="3"/>
		</g>
		<g>
			<polyline fill="#A3D5E0" points="32,137 32,140 29,140 			"/>
		</g>
		<g>
			<path fill="#1D2129" d="M33,140.5c0,0.276-0.225,0.5-0.5,0.5h-4c-0.276,0-0.5-0.224-0.5-0.5v-4c0-0.276,0.224-0.5,0.5-0.5h4
				c0.275,0,0.5,0.224,0.5,0.5V140.5z M29,140h3v-3h-3V140z"/>
		</g>
	</g>
	<g>
		<g>
			<rect x="15" y="144" fill="#BBE8EF" width="3" height="3"/>
		</g>
		<g>
			<polyline fill="#A3D5E0" points="18,144 18,147 15,147 			"/>
		</g>
		<g>
			<path fill="#1D2129" d="M19,147.5c0,0.276-0.224,0.5-0.5,0.5h-4c-0.276,0-0.5-0.224-0.5-0.5v-4c0-0.276,0.224-0.5,0.5-0.5h4
				c0.276,0,0.5,0.224,0.5,0.5V147.5z M15,147h3v-3h-3V147z"/>
		</g>
	</g>
	<g>
		<g>
			<rect x="22" y="144" fill="#BBE8EF" width="3" height="3"/>
		</g>
		<g>
			<polyline fill="#A3D5E0" points="25,144 25,147 22,147 			"/>
		</g>
		<g>
			<path fill="#1D2129" d="M26,147.5c0,0.276-0.224,0.5-0.5,0.5h-4c-0.276,0-0.5-0.224-0.5-0.5v-4c0-0.276,0.224-0.5,0.5-0.5h4
				c0.276,0,0.5,0.224,0.5,0.5V147.5z M22,147h3v-3h-3V147z"/>
		</g>
	</g>
	<g>
		<g>
			<rect x="29" y="144" fill="#BBE8EF" width="3" height="3"/>
		</g>
		<g>
			<polyline fill="#A3D5E0" points="32,144 32,147 29,147 			"/>
		</g>
		<g>
			<path fill="#1D2129" d="M33,147.5c0,0.276-0.225,0.5-0.5,0.5h-4c-0.276,0-0.5-0.224-0.5-0.5v-4c0-0.276,0.224-0.5,0.5-0.5h4
				c0.275,0,0.5,0.224,0.5,0.5V147.5z M29,147h3v-3h-3V147z"/>
		</g>
	</g>
	<g>
		<g>
			<rect x="15" y="151" fill="#BBE8EF" width="3" height="3"/>
		</g>
		<g>
			<polyline fill="#A3D5E0" points="18,151 18,154 15,154 			"/>
		</g>
		<g>
			<path fill="#1D2129" d="M19,154.5c0,0.276-0.224,0.5-0.5,0.5h-4c-0.276,0-0.5-0.224-0.5-0.5v-4c0-0.276,0.224-0.5,0.5-0.5h4
				c0.276,0,0.5,0.224,0.5,0.5V154.5z M15,154h3v-3h-3V154z"/>
		</g>
	</g>
	<g>
		<g>
			<rect x="22" y="151" fill="#BBE8EF" width="3" height="3"/>
		</g>
		<g>
			<polyline fill="#A3D5E0" points="25,151 25,154 22,154 			"/>
		</g>
		<g>
			<path fill="#1D2129" d="M26,154.5c0,0.276-0.224,0.5-0.5,0.5h-4c-0.276,0-0.5-0.224-0.5-0.5v-4c0-0.276,0.224-0.5,0.5-0.5h4
				c0.276,0,0.5,0.224,0.5,0.5V154.5z M22,154h3v-3h-3V154z"/>
		</g>
	</g>
	<g>
		<g>
			<rect x="29" y="151" fill="#BBE8EF" width="3" height="3"/>
		</g>
		<g>
			<polyline fill="#A3D5E0" points="32,151 32,154 29,154 			"/>
		</g>
		<g>
			<path fill="#1D2129" d="M33,154.5c0,0.276-0.225,0.5-0.5,0.5h-4c-0.276,0-0.5-0.224-0.5-0.5v-4c0-0.276,0.224-0.5,0.5-0.5h4
				c0.275,0,0.5,0.224,0.5,0.5V154.5z M29,154h3v-3h-3V154z"/>
		</g>
	</g>
	<g>
		<g>
			<rect x="15" y="158" fill="#BBE8EF" width="3" height="3"/>
		</g>
		<g>
			<polyline fill="#A3D5E0" points="18,158 18,161 15,161 			"/>
		</g>
		<g>
			<path fill="#1D2129" d="M19,161.5c0,0.276-0.224,0.5-0.5,0.5h-4c-0.276,0-0.5-0.224-0.5-0.5v-4c0-0.276,0.224-0.5,0.5-0.5h4
				c0.276,0,0.5,0.224,0.5,0.5V161.5z M15,161h3v-3h-3V161z"/>
		</g>
	</g>
	<g>
		<g>
			<rect x="22" y="158" fill="#BBE8EF" width="3" height="3"/>
		</g>
		<g>
			<polyline fill="#A3D5E0" points="25,158 25,161 22,161 			"/>
		</g>
		<g>
			<path fill="#1D2129" d="M26,161.5c0,0.276-0.224,0.5-0.5,0.5h-4c-0.276,0-0.5-0.224-0.5-0.5v-4c0-0.276,0.224-0.5,0.5-0.5h4
				c0.276,0,0.5,0.224,0.5,0.5V161.5z M22,161h3v-3h-3V161z"/>
		</g>
	</g>
	<g>
		<g>
			<rect x="29" y="158" fill="#BBE8EF" width="3" height="3"/>
		</g>
		<g>
			<polyline fill="#A3D5E0" points="32,158 32,161 29,161 			"/>
		</g>
		<g>
			<path fill="#1D2129" d="M33,161.5c0,0.276-0.225,0.5-0.5,0.5h-4c-0.276,0-0.5-0.224-0.5-0.5v-4c0-0.276,0.224-0.5,0.5-0.5h4
				c0.275,0,0.5,0.224,0.5,0.5V161.5z M29,161h3v-3h-3V161z"/>
		</g>
	</g>
	<g>
		<g>
			<g>
				<rect x="16" y="167" fill="#BBE8EF" width="7" height="5"/>
			</g>
			<g>
				<path fill="#1D2129" d="M24,172.5c0,0.276-0.224,0.5-0.5,0.5h-8c-0.276,0-0.5-0.224-0.5-0.5v-6c0-0.276,0.224-0.5,0.5-0.5h8
					c0.276,0,0.5,0.224,0.5,0.5V172.5z M16,172h7v-5h-7V172z"/>
			</g>
		</g>
		<g>
			<g>
				<rect x="24" y="167" fill="#A3D5E0" width="7" height="5"/>
			</g>
			<g>
				<path fill="#1D2129" d="M32,172.5c0,0.276-0.225,0.5-0.5,0.5h-8c-0.276,0-0.5-0.224-0.5-0.5v-6c0-0.276,0.224-0.5,0.5-0.5h8
					c0.275,0,0.5,0.224,0.5,0.5V172.5z M24,172h7v-5h-7V172z"/>
			</g>
		</g>
	</g>
	<g>
		<g>
			<path fill="#FFFFFF" d="M19.128,170.217c-0.083,0-0.165-0.031-0.227-0.094c-0.125-0.126-0.125-0.329,0-0.454l1.556-1.557
				c0.125-0.125,0.329-0.125,0.454,0c0.125,0.126,0.125,0.329,0,0.454l-1.556,1.557C19.292,170.186,19.21,170.217,19.128,170.217z"
				/>
		</g>
	</g>
	<g>
		<g>
			<path fill="#FFFFFF" d="M20.826,170.217c-0.083,0-0.165-0.031-0.227-0.094c-0.125-0.126-0.125-0.329,0-0.454l1.556-1.557
				c0.125-0.125,0.329-0.125,0.454,0c0.125,0.126,0.125,0.329,0,0.454l-1.556,1.557C20.99,170.186,20.908,170.217,20.826,170.217z"
				/>
		</g>
	</g>
	<g>
		<g>
			<path fill="#FFFFFF" d="M26.128,170.217c-0.083,0-0.165-0.031-0.228-0.094c-0.125-0.126-0.125-0.329,0-0.454l1.557-1.557
				c0.125-0.125,0.328-0.125,0.453,0c0.126,0.126,0.126,0.329,0,0.454l-1.555,1.557C26.292,170.186,26.21,170.217,26.128,170.217z"
				/>
		</g>
	</g>
	<g>
		<g>
			<path fill="#FFFFFF" d="M27.827,170.217c-0.083,0-0.165-0.031-0.228-0.094c-0.126-0.126-0.126-0.329,0-0.454l1.556-1.557
				c0.125-0.125,0.328-0.125,0.454,0c0.126,0.126,0.126,0.329,0,0.454l-1.556,1.557C27.991,170.186,27.909,170.217,27.827,170.217z"
				/>
		</g>
	</g>
	<g>
		<g>
			<g>
				<path fill="#8FC31F" d="M48.693,165.793c-2.199,0-3.307-1.591-2.461-3.622l2.129-5.07c0.847-2.031,2.23-2.014,3.078,0.018
					l2.127,5.044c0.849,2.031-0.26,3.631-2.461,3.631L48.693,165.793L48.693,165.793z"/>
			</g>
			<g>
				<path fill="#1D2129" d="M51.105,166.793h-2.412c-1.424,0-2.567-0.538-3.219-1.516c-0.643-0.964-0.701-2.204-0.164-3.491
					l2.129-5.072c0.771-1.852,1.867-2.128,2.453-2.128c0.588,0,1.689,0.279,2.469,2.147l2.127,5.04
					c0.539,1.293,0.48,2.535-0.164,3.502C53.682,166.24,52.509,166.793,51.105,166.793z M49.88,156.585
					c-0.045,0.02-0.313,0.228-0.596,0.9l-2.13,5.072c-0.27,0.648-0.274,1.221-0.016,1.61c0.269,0.403,0.82,0.625,1.555,0.625h2.412
					c0.732,0,1.285-0.223,1.555-0.627c0.262-0.393,0.257-0.968-0.016-1.619l-2.127-5.04
					C50.229,156.815,49.954,156.604,49.88,156.585z"/>
			</g>
		</g>
		<g>
			<path fill="#1D2129" d="M49.85,172.793c-0.554,0-1-0.447-1-1v-5c0-0.553,0.446-1,1-1c0.553,0,1,0.447,1,1v5
				C50.85,172.346,50.4,172.793,49.85,172.793z"/>
		</g>
	</g>
</g>
<g>
	<g>
		<path fill="none" stroke="#1D2129" stroke-linecap="round" stroke-linejoin="round" stroke-miterlimit="10" d="M43.284,15.771
			c0.405,0.407,0.819,0.834,1.187,1.278c0.368,0.444,0.729,0.907,1.053,1.386c0.322,0.479,0.631,0.975,0.906,1.484
			c0.277,0.51,0.534,1.035,0.764,1.574c0.229,0.538,0.432,1.09,0.606,1.653s0.323,1.139,0.444,1.725
			c0.119,0.586,0.154,1.183,0.218,1.788c0.062,0.604,0.038,1.219,0.038,1.84v0.094v0.094v0.094v0.094v0.094v0.094v0.094v0.094v0.094
			v0.094v0.094v0.094v0.094v0.094v0.094V30"/>
		<path fill="none" stroke="#1D2129" stroke-linecap="round" stroke-linejoin="round" stroke-miterlimit="10" d="M11.5,30v-0.094
			v-0.094v-0.094v-0.094V29.53v-0.094v-0.094V29.25v-0.094v-0.094v-0.094v-0.094V28.78v-0.094v-0.094V28.5
			c0-0.621,0.086-1.235,0.147-1.84c0.062-0.605,0.181-1.202,0.301-1.788c0.119-0.586,0.282-1.161,0.457-1.725
			c0.175-0.564,0.384-1.115,0.612-1.653c0.228-0.539,0.484-1.064,0.762-1.574c0.277-0.51,0.58-1.006,0.903-1.484
			c0.323-0.478,0.67-0.941,1.037-1.386c0.367-0.444,0.755-0.871,1.162-1.278c0.407-0.406,0.834-0.794,1.278-1.161
			c0.444-0.366,0.907-0.713,1.386-1.036c0.479-0.323,0.975-0.625,1.484-0.901c0.51-0.277,1.035-0.53,1.574-0.759
			c0.539-0.228,1.09-0.43,1.654-0.605c0.563-0.175,1.139-0.323,1.725-0.443c0.586-0.119,1.182-0.211,1.788-0.272
			c0.605-0.062,1.219-0.093,1.84-0.093h0.063h0.063h0.063h0.063h0.063h0.063h0.063h0.063h0.063h0.063h0.063h0.063h0.063h0.063h0.063
			h0.063c0.62,0,1.235,0.031,1.84,0.093c0.604,0.062,1.202,0.153,1.788,0.272c0.586,0.12,1.107,0.269,1.669,0.443"/>
		<polyline fill="none" stroke="#1D2129" stroke-linecap="round" stroke-linejoin="round" stroke-miterlimit="10" points="
			37.797,12.125 39.359,13.688 40.297,11.906 42.109,14.75 		"/>
	</g>
	<g>
		
			<linearGradient id="SVGID_1_" gradientUnits="userSpaceOnUse" x1="260.5527" y1="160.0957" x2="273.3553" y2="169.5383" gradientTransform="matrix(1 0 0 -1 -257.5996 185.0996)">
			<stop  offset="0" style="stop-color:#E4007F"/>
			<stop  offset="1" style="stop-color:#FFFFB8"/>
		</linearGradient>
		<path fill="url(#SVGID_1_)" d="M16.96,20.195c0,0,0.297-7.002-5.137-7.414c-5.433-0.414-4.214,6.256-5.175,8.952
			c-0.96,2.696-4.322,2.998-5.509,2.749C-0.049,24.234,11.644,30.289,16.96,20.195z"/>
		<path fill="#1D2129" d="M7.444,27.059C5.242,27.059,0,26.061,0,24.488v-1l1.158-0.013l0.172,0.028
			c0.087,0.019,0.287,0.049,0.599,0.049c0.307,0,3.027-0.061,3.773-2.154c0.21-0.59,0.309-1.51,0.412-2.484
			c0.313-2.959,0.769-7.516,5.784-7.131c5.061,0.385,6.177,5.699,6.06,8.455l-0.009,0.225l-0.119,0.198
			C15.045,25.949,10.639,27.059,7.444,27.059z M5.069,24.834c0.73,0.134,1.542,0.225,2.403,0.225c3.77,0,6.626-1.723,8.492-5.122
			c-0.003-1.102-0.247-5.856-4.216-6.159c-2.826-0.215-3.283,1.943-3.643,5.348C7.989,20.222,7.88,21.257,7.59,22.07
			C7.116,23.4,6.162,24.288,5.069,24.834z"/>
	</g>
	<g>
		
			<linearGradient id="SVGID_2_" gradientUnits="userSpaceOnUse" x1="312.7852" y1="160.4453" x2="302.7018" y2="168.2788" gradientTransform="matrix(1 0 0 -1 -257.5996 185.0996)">
			<stop  offset="0" style="stop-color:#00A0E9"/>
			<stop  offset="1" style="stop-color:#FFFFB8"/>
		</linearGradient>
		<path fill="url(#SVGID_2_)" d="M42.057,20.195c0,0-0.297-7.002,5.137-7.414c5.435-0.414,4.216,6.256,5.177,8.952
			c0.961,2.696,4.321,2.998,5.51,2.749C59.066,24.234,47.373,30.289,42.057,20.195z"/>
		<path fill="#1D2129" d="M51.545,27.059c-3.195,0-7.588-1.109-10.373-6.397l-0.105-0.198l-0.008-0.225
			c-0.117-2.756,0.998-8.07,6.06-8.455c5.022-0.376,5.471,4.172,5.782,7.131c0.104,0.975,0.201,1.895,0.41,2.483
			c0.748,2.095,3.465,2.155,3.771,2.155l0,0c0.313,0,0.506-0.268,0.592-0.287L57.936,23h1l0.027,1.25
			C58.963,25.823,53.748,27.059,51.545,27.059z M43.053,19.935c1.865,3.401,4.721,5.124,8.492,5.124
			c0.861,0,1.674-0.091,2.402-0.225c-1.092-0.546-2.045-1.434-2.52-2.766c-0.291-0.813-0.4-1.848-0.517-2.943
			c-0.358-3.403-0.818-5.557-3.644-5.348C43.279,14.081,43.051,18.834,43.053,19.935z"/>
	</g>
	<g>
		<path fill="#F4C4A4" d="M45,37.625C45,45.564,38.479,52,30.301,52h-0.258C21.865,52,15,45.564,15,37.625v-9.25
			C15,20.436,21.865,14,30.043,14h0.258C38.479,14,45,20.436,45,28.375V37.625z"/>
		<path fill="#F2B597" d="M30.301,14h-0.258c-0.463,0-0.974,0.027-1.427,0.067C36.15,14.739,42,20.885,42,28.375v9.25
			c0,7.49-5.85,13.636-13.383,14.308C29.069,51.973,29.581,52,30.043,52h0.258C38.479,52,45,45.564,45,37.625v-9.25
			C45,20.436,38.479,14,30.301,14z"/>
		<path fill="#1D2129" d="M30.301,53h-0.258C21.258,53,14,46.104,14,37.625v-9.25C14,19.896,21.258,13,30.043,13h0.258
			C39.018,13,46,19.896,46,28.375v9.25C46,46.104,39.018,53,30.301,53z M30.043,15C22.36,15,16,21,16,28.375v9.25
			C16,45,22.36,51,30.043,51h0.258C37.916,51,44,45,44,37.625v-9.25C44,21,37.916,15,30.301,15H30.043z"/>
		<path fill="#F2B597" d="M29.031,16c0,0-2.379,18.688,14.934,19.625C43.965,35.625,46.973,17,29.031,16z"/>
		<path fill="#F2B597" d="M31.042,16c0,0,2.379,18.688-14.934,19.625C16.109,35.625,13.101,17,31.042,16z"/>
	</g>
	<g>
		<path fill="#FFFFFF" stroke="#9FA0A0" stroke-width="2" stroke-miterlimit="10" d="M45.109,38"/>
	</g>
	<g>
		<circle fill="#1D2129" cx="24.079" cy="37.344" r="1.344"/>
	</g>
	<g>
		<path fill="#1D2129" d="M30.618,47.531c-0.477,0-0.951-0.048-1.412-0.143c-0.45-0.092-0.893-0.229-1.316-0.408
			c-0.416-0.176-0.816-0.393-1.191-0.646c-0.371-0.251-0.72-0.539-1.037-0.855c-0.195-0.195-0.195-0.512,0-0.707
			c0.195-0.195,0.512-0.195,0.707,0c0.272,0.271,0.571,0.519,0.89,0.734c0.321,0.217,0.664,0.403,1.02,0.554
			c0.362,0.153,0.742,0.271,1.127,0.35c0.79,0.161,1.63,0.163,2.422,0c0.385-0.079,0.764-0.196,1.128-0.35
			c0.354-0.15,0.698-0.337,1.021-0.554c0.317-0.216,0.617-0.463,0.89-0.734c0.194-0.195,0.512-0.195,0.706,0
			c0.195,0.195,0.195,0.512,0,0.707c-0.315,0.316-0.664,0.604-1.035,0.855c-0.376,0.254-0.775,0.471-1.189,0.646
			c-0.427,0.18-0.869,0.316-1.318,0.408C31.568,47.483,31.093,47.531,30.618,47.531z"/>
	</g>
	<path fill="#FFF100" stroke="#1D2129" stroke-miterlimit="10" d="M48.5,38.388C48.5,39.277,47.828,40,47,40l0,0
		c-0.828,0-1.5-0.723-1.5-1.612v-7.526c0-0.89,0.672-1.611,1.5-1.611l0,0c0.828,0,1.5,0.722,1.5,1.611V38.388z"/>
	<path fill="#00A0E9" stroke="#1D2129" stroke-miterlimit="10" d="M48.898,30.313c2.313,0,4.188,1.875,4.188,4.188
		s-1.873,4.188-4.188,4.188"/>
	<path fill="#E4007F" stroke="#1D2129" stroke-miterlimit="10" d="M11.797,30.313c-2.313,0-4.188,1.875-4.188,4.188
		s1.875,4.188,4.188,4.188"/>
	<path fill="#FFF100" stroke="#1D2129" stroke-miterlimit="10" d="M11.5,38.388C11.5,39.277,12.171,40,13,40l0,0
		c0.829,0,1.5-0.723,1.5-1.612v-7.526c0-0.89-0.671-1.611-1.5-1.611l0,0c-0.829,0-1.5,0.722-1.5,1.611V38.388z"/>
	<polyline fill="none" stroke="#1D2129" stroke-linecap="round" stroke-linejoin="round" points="37.635,38.627 35.338,37.301 
		37.635,35.975 	"/>
	<polyline fill="none" stroke="#1D2129" stroke-linecap="round" stroke-linejoin="round" points="21.487,40.301 20.824,41.449 
		20.161,40.301 	"/>
	<g>
		<path fill="#FFFFB8" d="M30.043,14c0,0,2.379,18.688-14.934,19.625C15.11,33.625,12.102,15,30.043,14z"/>
		<path fill="#1D2129" d="M14.266,34.672l-0.144-0.887c-0.059-0.367-1.395-9.057,3.515-15.158c2.759-3.43,6.915-5.322,12.351-5.625
			l0.93-0.053l0.118,0.924c0.048,0.376,1.112,9.268-3.966,15.357c-2.751,3.3-6.757,5.114-11.906,5.393L14.266,34.672z
			 M29.123,15.072c-4.36,0.426-7.694,2.038-9.92,4.799c-3.489,4.328-3.388,10.404-3.204,12.684c4.111-0.401,7.313-1.945,9.527-4.596
			C29.145,23.627,29.236,17.421,29.123,15.072z"/>
	</g>
	<g>
		<path fill="#FFFFB8" d="M30.031,14c0,0-2.379,18.688,14.934,19.625C44.965,33.625,47.973,15,30.031,14z"/>
		<path fill="#1D2129" d="M45.809,34.672l-0.897-0.049c-5.147-0.278-9.154-2.093-11.906-5.393
			c-5.078-6.09-4.014-14.981-3.966-15.357l0.118-0.924l0.93,0.053c5.437,0.303,9.591,2.195,12.351,5.625
			c4.908,6.102,3.572,14.791,3.515,15.158L45.809,34.672z M30.952,15.072c-0.113,2.349-0.022,8.555,3.597,12.887
			c2.215,2.65,5.417,4.194,9.528,4.596c0.185-2.279,0.284-8.355-3.205-12.684C38.645,17.11,35.313,15.498,30.952,15.072z"/>
	</g>
</g>
<g>
	<g>
		<rect x="31" y="70" fill="#3D2B1E" width="6" height="46"/>
		<rect x="35" y="70" fill="#40220F" width="2" height="46"/>
		<path fill="none" stroke="#1D2129" stroke-width="2" stroke-miterlimit="10" d="M37,114c0,1.104-0.896,2-2,2h-2
			c-1.104,0-2-0.896-2-2V72c0-1.104,0.896-2,2-2h2c1.104,0,2,0.896,2,2V114z"/>
	</g>
	<g>
		<path fill="#FFFFFF" d="M53,96c0,1.104-0.896,2-2,2H17c-1.104,0-2-0.896-2-2V76c0-1.104,0.896-2,2-2h34c1.104,0,2,0.896,2,2V96z"
			/>
		<path fill="#EFEFEF" d="M53,75c0-0.552-0.447-1-1-1l0,0c-0.553,0-1,0.448-1,1v22c0,0.552,0.447,1,1,1l0,0c0.553,0,1-0.448,1-1V75z
			"/>
		<path fill="none" stroke="#1D2129" stroke-width="2" stroke-miterlimit="10" d="M53,96c0,1.104-0.896,2-2,2H17
			c-1.104,0-2-0.896-2-2V76c0-1.104,0.896-2,2-2h34c1.104,0,2,0.896,2,2V96z"/>
	</g>
	<g>
		<path fill="#F39800" d="M21.3,77.443c0.369-0.747,0.972-0.747,1.34,0c0.368,0.747,1.344,1.455,2.167,1.575
			c0.824,0.12,1.011,0.692,0.414,1.273c-0.596,0.581-0.968,1.727-0.827,2.547c0.141,0.821-0.348,1.176-1.084,0.789
			c-0.736-0.388-1.942-0.388-2.68,0c-0.736,0.387-1.224,0.032-1.083-0.789c0.141-0.82-0.232-1.966-0.828-2.547
			c-0.596-0.581-0.41-1.153,0.414-1.273C19.957,78.898,20.932,78.19,21.3,77.443z"/>
		<path fill="none" stroke="#1D2129" stroke-miterlimit="10" d="M21.3,77.443c0.369-0.747,0.972-0.747,1.34,0
			c0.368,0.747,1.344,1.455,2.167,1.575c0.824,0.12,1.011,0.692,0.414,1.273c-0.596,0.581-0.968,1.727-0.827,2.547
			c0.141,0.821-0.348,1.176-1.084,0.789c-0.736-0.388-1.942-0.388-2.68,0c-0.736,0.387-1.224,0.032-1.083-0.789
			c0.141-0.82-0.232-1.966-0.828-2.547c-0.596-0.581-0.41-1.153,0.414-1.273C19.957,78.898,20.932,78.19,21.3,77.443z"/>
	</g>
	
		<line fill="none" stroke="#F39800" stroke-width="2" stroke-linecap="round" stroke-linejoin="round" stroke-miterlimit="10" x1="31" y1="79" x2="48" y2="79"/>
	
		<line fill="none" stroke="#F39800" stroke-width="2" stroke-linecap="round" stroke-linejoin="round" stroke-miterlimit="10" x1="31" y1="82" x2="48" y2="82"/>
	
		<line fill="none" stroke="#9FA0A0" stroke-linecap="round" stroke-linejoin="round" stroke-miterlimit="10" x1="20" y1="87.5" x2="37" y2="87.5"/>
	
		<line fill="none" stroke="#9FA0A0" stroke-linecap="round" stroke-linejoin="round" stroke-miterlimit="10" x1="41" y1="87.5" x2="48" y2="87.5"/>
	
		<line fill="none" stroke="#9FA0A0" stroke-linecap="round" stroke-linejoin="round" stroke-miterlimit="10" x1="20" y1="90.5" x2="48" y2="90.5"/>
	
		<line fill="none" stroke="#9FA0A0" stroke-linecap="round" stroke-linejoin="round" stroke-miterlimit="10" x1="30" y1="93.5" x2="48" y2="93.5"/>
	
		<line fill="none" stroke="#9FA0A0" stroke-linecap="round" stroke-linejoin="round" stroke-miterlimit="10" x1="20" y1="93.5" x2="28" y2="93.5"/>
	<path fill="#1D2129" d="M14.683,71.201c0.452,0,0.817-0.365,0.817-0.817v-5.885c0-0.451-0.365-0.816-0.817-0.816
		c-0.451,0-0.817,0.365-0.817,0.816v5.885C13.865,70.835,14.231,71.201,14.683,71.201z"/>
	<path fill="#1D2129" d="M3.895,74.47c-0.451,0-0.817,0.366-0.817,0.817c0,0.451,0.366,0.817,0.817,0.817H9.78
		c0.451,0,0.817-0.366,0.817-0.817c0-0.451-0.367-0.817-0.818-0.817H3.895z"/>
	<path fill="#1D2129" d="M10.638,72.398c0.16,0.159,0.369,0.239,0.578,0.239s0.418-0.08,0.578-0.239
		c0.318-0.319,0.318-0.837,0-1.155l-1.981-1.981c-0.319-0.319-0.837-0.319-1.156,0c-0.318,0.319-0.318,0.837,0,1.155L10.638,72.398z
		"/>
</g>
<g>
	<g>
		<g>
			<g>
				<g>
					<polygon fill="#FFFFFF" points="37.377,346 24.076,346 21.227,316 40.227,316 					"/>
				</g>
				<g>
					<polygon fill="#DCDDDD" points="38.227,316 35.377,346 37.377,346 40.227,316 					"/>
				</g>
				<g>
					<polygon fill="#DCDDDD" points="23.377,316 26.227,346 24.227,346 21.377,316 					"/>
				</g>
				<g>
					<path fill="#1D2129" d="M37.377,347H24.076c-0.516,0-0.946-0.393-0.995-0.904l-2.85-30c-0.027-0.281,0.065-0.561,0.255-0.769
						S20.945,315,21.226,315h19c0.28,0,0.549,0.119,0.739,0.327c0.188,0.208,0.282,0.487,0.255,0.769l-2.85,30
						C38.322,346.607,37.893,347,37.377,347z M24.985,345h11.482l2.659-28h-16.8L24.985,345z"/>
				</g>
			</g>
			<g>
				<g>
					<polygon fill="#EAEBE3" points="41.727,317 19.727,317 20.727,315 40.727,315 					"/>
				</g>
				<g>
					<path fill="#1D2129" d="M41.746,317c-0.005,0.001-0.014,0.001-0.02,0h-22c-0.173,0-0.334-0.09-0.426-0.236
						c-0.091-0.147-0.099-0.332-0.021-0.486l1-2c0.085-0.17,0.258-0.276,0.447-0.276h20c0.188,0,0.361,0.106,0.446,0.276l0.944,1.89
						c0.08,0.088,0.128,0.205,0.128,0.334C42.246,316.775,42.021,317,41.746,317z M20.535,316h20.383l-0.5-1H21.035L20.535,316z"/>
				</g>
			</g>
			<g>
				<g>
					<polygon fill="#EAEBE3" points="40.477,313 20.977,313 21.862,310 39.591,310 					"/>
				</g>
				<g>
					<polygon fill="#B5B5B0" points="39.268,310 37.902,310 39.111,313 40.477,313 					"/>
				</g>
				<g>
					<polygon fill="#B5B5B0" points="22.111,310 23.476,310 22.267,313 20.902,313 					"/>
				</g>
				<g>
					<path fill="#1D2129" d="M40.496,313c-0.005,0.001-0.014,0.001-0.02,0h-19.5c-0.157,0-0.306-0.074-0.4-0.2
						c-0.095-0.127-0.124-0.29-0.079-0.44l0.886-3c0.063-0.213,0.258-0.358,0.479-0.358h17.729c0.222,0,0.417,0.146,0.479,0.358
						l0.849,2.873c0.049,0.078,0.077,0.17,0.077,0.269C40.996,312.775,40.771,313,40.496,313z M21.646,312h18.163l-0.592-2h-16.98
						L21.646,312z"/>
				</g>
			</g>
			<g>
				<g>
					<polygon fill="#EAEBE3" points="19.727,313 41.727,313 40.727,315 20.727,315 					"/>
				</g>
				<g>
					<path fill="#1D2129" d="M40.727,315h-20c-0.189,0-0.362-0.107-0.447-0.275l-1-2c-0.077-0.156-0.069-0.34,0.021-0.486
						c0.092-0.147,0.253-0.237,0.426-0.237h22c0.174,0,0.334,0.09,0.426,0.237c0.092,0.146,0.1,0.33,0.021,0.486l-1,2
						C41.089,314.893,40.916,315,40.727,315z M21.035,314h19.383l0.5-1H20.535L21.035,314z"/>
				</g>
			</g>
		</g>
		<g>
			<g>
				<path fill="#067655" d="M30.736,318.689c-3.407,0-6.17,2.764-6.17,6.172c0,3.406,2.763,6.17,6.17,6.17
					c3.406,0,6.17-2.764,6.17-6.17C36.906,321.453,34.145,318.689,30.736,318.689z M30.736,330.789
					c-3.272,0-5.927-2.654-5.927-5.928c0-3.274,2.654-5.928,5.927-5.928c3.272,0,5.927,2.652,5.927,5.928
					C36.663,328.135,34.01,330.789,30.736,330.789z"/>
			</g>
			<g>
				<path fill="#067655" d="M30.771,319.333c-3.054,0-5.527,2.476-5.527,5.526c0,3.055,2.475,5.529,5.527,5.529
					c3.054,0,5.527-2.476,5.527-5.529C36.3,321.809,33.825,319.333,30.771,319.333z M30.771,329.243
					c-2.42,0-4.382-1.962-4.382-4.384c0-2.42,1.962-4.381,4.382-4.381c2.42,0,4.383,1.961,4.383,4.381
					C35.154,327.281,33.191,329.243,30.771,329.243z"/>
			</g>
			<g>
				<path fill="#1D2129" d="M30.788,321.047c-2.07,0-3.748,1.678-3.748,3.748s1.678,3.748,3.748,3.748
					c2.069,0,3.748-1.678,3.748-3.748S32.857,321.047,30.788,321.047z M32.314,326.596l-1.435-0.754l-1.434,0.754l0.274-1.598
					l-1.161-1.13l1.604-0.231l0.717-1.453l0.718,1.453l1.603,0.231l-1.16,1.13L32.314,326.596z"/>
			</g>
		</g>
	</g>
	<g>
		<g>
			<path fill="#D13834" d="M19.135,335.609c-1.124,0.279-2.3,0.279-3.424,0c-5.854-1.447-10.756-0.893-10.7,10.147
				c0.029,5.655,5.325,12.988,10.891,11.734c1-0.226,2.044-0.226,3.043,0c5.565,1.254,10.861-6.079,10.892-11.734
				C29.892,334.718,24.991,334.162,19.135,335.609z"/>
			<path fill="#1D2129" d="M20.216,358.634C20.215,358.634,20.215,358.634,20.216,358.634c-0.501,0-1.002-0.056-1.491-0.165
				c-0.85-0.191-1.753-0.191-2.604,0c-0.488,0.109-0.989,0.165-1.489,0.165c-5.684,0-10.59-7.077-10.62-12.87
				c-0.024-4.785,0.861-8.014,2.706-9.867c1.248-1.256,2.885-1.865,5.003-1.865c1.209,0,2.553,0.193,4.231,0.609
				c0.961,0.237,1.982,0.237,2.943,0c1.679-0.416,3.023-0.609,4.232-0.609c2.118,0,3.755,0.609,5.003,1.865
				c1.845,1.854,2.729,5.082,2.706,9.867C30.805,351.557,25.897,358.634,20.216,358.634z M17.423,356.324
				c0.586,0,1.172,0.064,1.741,0.191c0.345,0.078,0.698,0.117,1.051,0.117c4.41,0,8.596-6.13,8.621-10.881
				c0.021-4.167-0.693-7.009-2.124-8.445c-0.854-0.859-2.026-1.275-3.585-1.275c-1.028,0-2.256,0.18-3.752,0.55
				c-1.275,0.315-2.629,0.315-3.904,0c-1.496-0.37-2.723-0.55-3.751-0.55c-1.559,0-2.731,0.416-3.585,1.273
				c-1.431,1.438-2.146,4.279-2.124,8.447c0.024,4.751,4.209,10.881,8.62,10.881c0.353,0,0.706-0.039,1.051-0.117
				C16.252,356.389,16.838,356.324,17.423,356.324z"/>
		</g>
		<g>
			<path fill="#F75B57" d="M7.732,342.938c-0.302,0-0.545-0.242-0.545-0.543c0-3.002,2.197-5.443,4.899-5.443
				c0.301,0,0.544,0.242,0.544,0.545c0,0.3-0.243,0.543-0.544,0.543c-2.1,0-3.812,1.953-3.812,4.355
				C8.275,342.693,8.032,342.938,7.732,342.938z"/>
		</g>
		<g>
			<path fill="#4C312C" d="M17.385,337.671c-0.293,0-0.535-0.231-0.543-0.526c-0.074-2.305-0.959-5.194-3.226-6.403
				c-0.264-0.142-0.364-0.47-0.223-0.735c0.141-0.265,0.47-0.365,0.736-0.227c2.675,1.428,3.716,4.723,3.8,7.33
				c0.01,0.301-0.227,0.553-0.527,0.563C17.396,337.671,17.39,337.671,17.385,337.671z"/>
			<path fill="#1D2129" d="M17.419,338.671h-0.034c-0.843,0-1.521-0.659-1.543-1.5c-0.064-2.019-0.808-4.541-2.696-5.548
				c-0.75-0.4-1.035-1.337-0.635-2.089c0.388-0.726,1.354-1.025,2.086-0.64c3.054,1.629,4.239,5.293,4.332,8.182
				c0.014,0.412-0.135,0.806-0.417,1.105c-0.282,0.301-0.665,0.475-1.077,0.487L17.419,338.671z"/>
		</g>
		<g>
			<path fill="#994530" d="M17.335,341.502c-1.479,0-2.871-0.577-3.919-1.628c-0.343-0.343-0.343-0.899,0-1.243
				c0.346-0.346,0.901-0.346,1.246,0c0.715,0.715,1.664,1.105,2.673,1.105c1.011,0,1.958-0.391,2.674-1.105
				c0.345-0.346,0.899-0.346,1.245,0c0.346,0.344,0.346,0.9,0,1.243C20.207,340.925,18.815,341.502,17.335,341.502z"/>
		</g>
		<g>
			<path fill="#659C35" d="M16.861,333.884l0.333-2.225c0.349-2.349,2.193-4.193,4.541-4.542l2.224-0.332l-0.332,2.225
				c-0.35,2.35-2.193,4.191-4.542,4.543L16.861,333.884z"/>
			<path fill="#1D2129" d="M16.267,334.479l0.434-2.894c0.383-2.584,2.377-4.578,4.962-4.962l2.892-0.434l-0.433,2.895
				c-0.384,2.582-2.378,4.576-4.962,4.963L16.267,334.479z M23.365,327.38l-1.556,0.231c-2.146,0.318-3.802,1.976-4.121,4.121
				l-0.232,1.558l1.556-0.231c2.146-0.32,3.802-1.979,4.121-4.121L23.365,327.38z"/>
		</g>
	</g>
	<g>
		<path fill="#EAEBE3" d="M54.943,349.355c0.137,4.461-3.366,8.188-7.827,8.326l-17.785,0.547c-4.46,0.138-8.184-3.367-8.324-7.828
			l-0.005-0.135c-0.135-4.461,3.367-8.188,7.828-8.326l17.783-0.547c4.462-0.139,8.189,3.367,8.324,7.828L54.943,349.355z"/>
		<path fill="#BCBCB7" d="M55.938,349.221c-0.137-4.459-3.862-7.966-8.324-7.828l-1.84,0.058c3.93,0.442,7.039,3.704,7.164,7.771
			l0.006,0.137c0.137,4.459-3.366,8.188-7.827,8.324l-15.945,0.49c0.381,0.043,0.767,0.068,1.16,0.057l17.785-0.547
			c4.461-0.137,7.964-3.865,7.827-8.324L55.938,349.221z"/>
		<path fill="#BCBCB7" d="M20.179,349.221c0.137-4.459,3.863-7.966,8.324-7.828l1.84,0.058c-3.929,0.442-7.039,3.704-7.164,7.771
			l-0.005,0.137c-0.137,4.459,3.366,8.188,7.827,8.324l15.944,0.49c-0.381,0.043-0.766,0.068-1.159,0.057l-17.785-0.547
			c-4.461-0.137-7.964-3.865-7.827-8.324L20.179,349.221z"/>
		<path fill="#1D2129" d="M29.077,359.232c-4.931,0-8.914-3.865-9.069-8.801l-0.005-0.131c-0.151-5.008,3.794-9.205,8.796-9.361
			l18.069-0.551c4.935,0,8.919,3.865,9.069,8.801l0.004,0.131c0.076,2.43-0.799,4.738-2.459,6.505
			c-1.662,1.769-3.912,2.78-6.336,2.856L29.077,359.232z M46.868,342.389l-0.224,0.004l-17.785,0.547
			c-3.899,0.123-6.977,3.396-6.858,7.297l0.004,0.13c0.122,3.853,3.228,6.866,7.071,6.866l0.223-0.004l17.786-0.547
			c1.891-0.058,3.645-0.849,4.939-2.227c1.293-1.378,1.977-3.178,1.918-5.068l-0.004-0.13
			C53.82,345.402,50.715,342.389,46.868,342.389z"/>
	</g>
	<g>
		<polygon fill="#1D2129" points="33.182,348.6 30.465,348.684 30.383,345.969 27.669,346.053 27.752,348.768 25.036,348.85 
			25.12,351.564 27.835,351.482 27.918,354.195 30.633,354.113 30.548,351.398 33.264,351.314 		"/>
	</g>
	<g>
		<path fill="#036EB8" d="M47.707,346.027c0.029,0.984-0.745,1.808-1.725,1.836c-0.985,0.031-1.808-0.74-1.84-1.725
			c-0.027-0.984,0.742-1.808,1.729-1.838C46.854,344.273,47.68,345.046,47.707,346.027z"/>
	</g>
	<g>
		<circle fill="#F39800" cx="46.135" cy="352.872" r="1.782"/>
	</g>
	<g>
		<circle fill="#E60012" cx="49.424" cy="349.373" r="1.782"/>
	</g>
	<g>
		<circle fill="#E60012" cx="49.424" cy="349.373" r="1.782"/>
	</g>
	<g>
		<path fill="#8FC31F" d="M42.691,351.365c-0.983,0.027-1.805-0.744-1.838-1.729c-0.028-0.982,0.744-1.806,1.729-1.834
			c0.984-0.033,1.807,0.741,1.836,1.727C44.45,350.512,43.676,351.333,42.691,351.365z"/>
	</g>
	<g>
		<path fill="#B5B5B6" d="M39.866,345.081c0.01,0.328-0.249,0.604-0.576,0.614l-2.884,0.089c-0.328,0.008-0.602-0.249-0.613-0.576
			l-0.006-0.17c-0.01-0.326,0.249-0.603,0.576-0.613l2.885-0.088c0.327-0.011,0.604,0.248,0.609,0.576L39.866,345.081z"/>
	</g>
	<g>
		<path fill="#1D2129" d="M42.768,342c-0.271,0-0.496-0.377-0.5-0.65l-0.146-9.584c-0.006-0.34,0.058-0.713,0.185-1.031
			c0.123-0.303,0.303-0.598,0.534-0.834c0.214-0.226,0.488-0.428,0.788-0.563c0.316-0.141,0.648-0.218,0.992-0.222
			c0.328-0.021,0.664,0.05,0.988,0.181c0.303,0.122,0.578,0.301,0.814,0.532c0.235,0.226,0.424,0.494,0.557,0.798
			c0.133,0.301,0.205,0.629,0.215,0.977l0.063,4.078c0.004,0.207,0.049,0.409,0.133,0.598c0.076,0.18,0.19,0.345,0.332,0.479
			c0.143,0.141,0.313,0.252,0.498,0.326c0.189,0.076,0.355,0.109,0.6,0.111c0.205-0.004,0.406-0.047,0.598-0.131
			c0.178-0.078,0.338-0.19,0.479-0.338c0.144-0.146,0.252-0.313,0.328-0.494c0.075-0.188,0.111-0.391,0.107-0.594l-0.073-7.763
			l-0.138-4.813c-0.008-0.276,0.21-0.508,0.484-0.516c0.283,0.003,0.508,0.21,0.516,0.485l0.138,4.825l0.073,7.762
			c0.007,0.337-0.055,0.671-0.182,0.988c-0.127,0.307-0.307,0.578-0.537,0.814c-0.23,0.239-0.498,0.428-0.795,0.557
			c-0.313,0.138-0.644,0.211-0.983,0.217c-0.362,0.002-0.676-0.059-0.991-0.187c-0.308-0.126-0.582-0.305-0.816-0.532
			c-0.231-0.224-0.426-0.5-0.555-0.797c-0.135-0.309-0.207-0.64-0.215-0.981l-0.063-4.075c-0.006-0.21-0.049-0.411-0.131-0.596
			c-0.08-0.184-0.192-0.344-0.334-0.479c-0.148-0.146-0.313-0.253-0.494-0.325c-0.196-0.08-0.383-0.129-0.598-0.111
			c-0.214,0.003-0.412,0.047-0.603,0.131c-0.183,0.081-0.347,0.195-0.478,0.333c-0.146,0.147-0.252,0.313-0.326,0.493
			c-0.078,0.195-0.115,0.396-0.111,0.602l0.146,9.665c0.004,0.276-0.218,0.666-0.492,0.666C42.771,342,42.77,342,42.768,342z"/>
	</g>
</g>
<g>
	<g>
		<g>
			<polygon fill="#808080" points="29.005,214.664 29.801,221.729 21.442,221.729 22.238,214.664 			"/>
			<path fill="#1D2129" d="M30.551,222.396h-9.856l0.946-8.4h7.963L30.551,222.396z M22.19,221.061h6.864l-0.646-5.729h-5.572
				L22.19,221.061z"/>
		</g>
		<g>
			<rect x="18.253" y="221.414" fill="#CCCCCC" width="14.735" height="2.051"/>
			<path fill="#1D2129" d="M33.659,224.133H17.585v-3.389h16.073L33.659,224.133L33.659,224.133z M18.922,222.797h13.4v-0.715h-13.4
				V222.797z"/>
		</g>
		<g>
			<g>
				<path fill="#595757" d="M44,190.568c0-1.039,0.598-2.568-0.346-2.568H8.187C7.244,188,5,189.529,5,190.568V210h39V190.568z"/>
				<g>
					<path fill="#1A1A1A" d="M8.187,188C7.244,188,5,189.529,5,190.568V210h13.132l12.948-22H8.187z"/>
				</g>
				<path fill="#1D2129" d="M45,211H5v-20.432C5,189.115,6.886,188,8.187,188h35.467c1.279,0,1.346,1.162,1.346,2.568V211z M6,210
					h38v-19.432c0-0.672,0.266-1.568-0.346-1.568H8.187C7.604,189,6,189.963,6,190.568V210z"/>
			</g>
			<g>
				<path fill="#CCCCCC" d="M5,210v4.21c0,1.04,2.244,0.79,3.187,0.79h35.467c0.943,0,0.346,0.25,0.346-0.79V210H5z"/>
				<g>
					<path fill="#999999" d="M5,210v4.21c0,1.04,2.244,0.79,3.187,0.79h6.497l3.425-5H5z"/>
				</g>
				<path fill="#1D2129" d="M43.654,216H8.187C6.916,216,5,215.611,5,214.21V210h40v4.21C45,215.643,44.977,216,43.654,216z M6,211
					v3.21c0,0.666,1.583,0.79,2.187,0.79h35.467c0.551,0,0.346-0.148,0.346-0.79V211H6z"/>
			</g>
		</g>
	</g>
	<g>
		<g>
			<path fill="#F15249" d="M56.648,214.507c0,1.413-1.08,2.56-2.414,2.56h-17.51c-1.334,0-2.414-1.146-2.414-2.56v-12.063
				c0-1.414,1.08-2.56,2.414-2.56h17.51c1.334,0,2.414,1.146,2.414,2.56V214.507L56.648,214.507z"/>
			<g>
				<path fill="#EF302B" d="M54.643,200H49.99l-11.934,17h16.586c1.334,0,1.356-0.008,1.356-1.42v-12.064
					C56,202.104,55.977,200,54.643,200z"/>
			</g>
			<path fill="#1D2129" d="M54.123,217.48H36.82c-1.528,0-2.771-1.336-2.771-2.975v-12.063c0-1.641,1.243-2.976,2.771-2.976h17.303
				c1.527,0,2.771,1.335,2.771,2.976v12.063C56.895,216.146,55.65,217.48,54.123,217.48z M36.82,200.299
				c-1.103,0-1.998,0.961-1.998,2.145v12.063c0,1.183,0.896,2.144,1.998,2.144h17.303c1.102,0,1.998-0.961,1.998-2.144v-12.063
				c0-1.184-0.896-2.145-1.998-2.145H36.82z"/>
		</g>
		<polygon fill="#FFFFFF" points="41.654,202.786 41.654,213.781 49.137,208.283 		"/>
		<polygon fill="#EFEFEF" points="41.654,208.055 41.654,213.781 49.137,208.283 		"/>
	</g>
	<g>
		<g>
			<g>
				<g>
					<path fill="#C9A063" d="M44,233.482c0,1.729-0.115,2.518-1.748,2.518H27.806c-1.632,0-3.806-0.787-3.806-2.518v-18.896
						c0-1.73,2.174-4.587,3.806-4.587h14.446c1.633,0,1.748,2.854,1.748,4.587V233.482z"/>
					<g>
						<path fill="#A38355" d="M41.779,210h-0.246l-15,25.436c0.388,0.196,0.816,0.564,1.273,0.564h13.973
							c1.635,0,2.221-0.447,2.221-2.176v-19.237C44,212.855,43.414,210,41.779,210z"/>
					</g>
				</g>
				<g>
					<path fill="#1D2129" d="M45,234.232c0,2.047-0.883,2.768-2.674,2.768H26.81c-1.791,0-3.81-0.721-3.81-2.768v-19.588
						c0-2.047,2.019-4.646,3.81-4.646h15.516c1.791,0,2.674,2.599,2.674,4.646V234.232z M44,214.531C44,213.1,43.07,211,41.641,211
						H26.822c-1.431,0-2.822,2.1-2.822,3.531v19.816c0,1.432,1.391,1.651,2.822,1.651h14.819c1.43,0,2.359-0.222,2.359-1.651
						V214.531z"/>
				</g>
			</g>
			<g>
				<g>
					<path fill="#F2F0E7" d="M43.078,230H27.58c-1.522,0-4.58,1.537-4.58,3.059v0.816c0,1.521,3.057,3.125,4.58,3.125h15.499
						C44.6,237,44,234.951,44,233.428v-0.369v-2.768v-2.768C44,229.047,44.6,230,43.078,230z"/>
					<path fill="#D8D7CE" d="M43.078,230H42v3.059v0.369c0,1.523,0.371,3.572-1.152,3.572h2.23C44.6,237,44,234.951,44,233.428
						v-0.369v-2.768v-2.768C44,229.047,44.6,230,43.078,230z"/>
					<path fill="#1D2129" d="M43.078,237h-7.75H27.58c-0.938,0-2.527,0.23-3.295-0.561S23,234.775,23,233.875v-0.408v-0.408
						c0-0.896,0.813-2.146,1.58-2.701c0.767-0.557,2.052-1.357,3-1.357h7.749h7.75c0.614,0,1.032-0.25,1.297-0.625
						S44.748,228,44.748,227h0.41H45v3.684v2.744c0,0.893,0.141,1.551-0.24,2.456C44.377,236.788,44.039,237,43.078,237z M27.58,230
						c-0.656,0-1.693,0.719-2.282,1.109c-0.589,0.392-1.298,1.438-1.298,1.949v0.408v0.408c0,0.589,0.374,1.318,0.972,1.938
						C25.57,236.432,26.957,236,27.58,236h7.749h7.75c0.537,0,0.625-0.083,0.862-0.798c0.238-0.716,0.059-1.123,0.059-1.774v-1.496
						v-1.496c0,0.195,0.074-0.147-0.217-0.072c-0.291,0.078-0.379-0.363-0.705-0.363h-7.75H27.58z"/>
				</g>
				<g>
					<path fill="#FFFFFF" d="M44,233v-2.523c0,1.521,0.6,3.523-0.922,3.523H27"/>
					<path fill="#1D2129" d="M43.078,234H28.027c-0.308,0-0.558-0.191-0.558-0.5s0.25-0.5,0.558-0.5h15.051c1.217,0,1.67-3,1.67-4
						H45v4.271c0,0.309,0.182,0.559-0.127,0.559c-0.193,0-0.148-0.294-0.247-0.445C44.18,233.881,43.805,234,43.078,234z"/>
				</g>
			</g>
		</g>
		<g>
			<g>
				<path fill="#1D2129" d="M26.168,212.598c-0.112-0.102-0.168-0.246-0.168-0.391l0,0c0-0.146,0.056-0.291,0.168-0.391l0,0
					c0.101-0.111,0.244-0.166,0.39-0.166l0,0c0.146,0,0.29,0.055,0.39,0.166l0,0c0.111,0.1,0.168,0.244,0.168,0.391l0,0
					c0,0.145-0.057,0.289-0.168,0.391l0,0c-0.1,0.111-0.244,0.166-0.39,0.166l0,0C26.412,212.764,26.269,212.709,26.168,212.598z"/>
			</g>
			<g>
				<path fill="#1D2129" d="M26.5,217.223c-0.309,0-0.5-0.248-0.5-0.557v-2.23c0-0.307,0.191-0.557,0.5-0.557s0.5,0.25,0.5,0.557
					v2.23C27,216.975,26.809,217.223,26.5,217.223z"/>
			</g>
			<g>
				<path fill="#1D2129" d="M26.168,219.285c-0.112-0.102-0.168-0.244-0.168-0.391l0,0c0-0.146,0.056-0.289,0.168-0.39l0,0
					c0.101-0.112,0.244-0.168,0.39-0.168l0,0c0.146,0,0.29,0.056,0.39,0.168l0,0c0.111,0.101,0.168,0.244,0.168,0.39l0,0
					c0,0.146-0.057,0.289-0.168,0.391l0,0c-0.1,0.111-0.244,0.168-0.39,0.168l0,0C26.412,219.453,26.269,219.396,26.168,219.285z"/>
			</g>
			<g>
				<path fill="#1D2129" d="M26.168,225.973c-0.112-0.1-0.168-0.244-0.168-0.39l0,0c0-0.146,0.056-0.288,0.168-0.39l0,0
					c0.101-0.112,0.244-0.168,0.39-0.168l0,0c0.146,0,0.29,0.056,0.39,0.168l0,0c0.111,0.102,0.168,0.244,0.168,0.39l0,0
					c0,0.146-0.057,0.29-0.168,0.39l0,0c-0.1,0.111-0.244,0.168-0.39,0.168l0,0C26.412,226.141,26.269,226.084,26.168,225.973z"/>
			</g>
			<g>
				<path fill="#1D2129" d="M26.168,228.203c-0.112-0.102-0.168-0.246-0.168-0.391l0,0c0-0.146,0.056-0.289,0.168-0.39l0,0
					c0.101-0.112,0.244-0.168,0.39-0.168l0,0c0.146,0,0.29,0.056,0.39,0.168l0,0c0.111,0.101,0.168,0.242,0.168,0.39l0,0
					c0,0.145-0.057,0.289-0.168,0.391l0,0c-0.1,0.111-0.244,0.167-0.39,0.167l0,0C26.412,228.37,26.269,228.314,26.168,228.203z"/>
			</g>
			<g>
				<path fill="#1D2129" d="M26.5,223.912c-0.309,0-0.5-0.25-0.5-0.559v-2.229c0-0.309,0.191-0.559,0.5-0.559s0.5,0.25,0.5,0.559
					v2.229C27,223.662,26.809,223.912,26.5,223.912z"/>
			</g>
		</g>
	</g>
	<rect x="38.5" y="210.5" fill="#F39800" stroke="#1D2129" stroke-miterlimit="10" width="2" height="19"/>
</g>
<g>
	<path fill="#EAEBE3" d="M50.5,290c0,2.209-1.791,4-4,4h-33c-2.209,0-4-1.791-4-4v-33c0-2.209,1.791-4,4-4h33c2.209,0,4,1.791,4,4
		V290z"/>
	<path fill="#C9CACA" d="M47.777,253H43.75c1.779,0,2.75,1.791,2.75,4v33c0,2.209-0.971,4-2.75,4h4.027c1.78,0,2.723-1.791,2.723-4
		v-33C50.5,254.791,49.558,253,47.777,253z"/>
	<path fill="none" stroke="#1D2129" stroke-width="2" stroke-miterlimit="10" d="M50.5,290c0,2.209-1.791,4-4,4h-33
		c-2.209,0-4-1.791-4-4v-33c0-2.209,1.791-4,4-4h33c2.209,0,4,1.791,4,4V290z"/>
</g>
<line fill="none" stroke="#1D2129" stroke-linecap="round" stroke-miterlimit="10" x1="13" y1="257" x2="13" y2="259"/>
<line fill="none" stroke="#1D2129" stroke-linecap="round" stroke-miterlimit="10" x1="15" y1="257" x2="15" y2="259"/>
<line fill="none" stroke="#1D2129" stroke-linecap="round" stroke-miterlimit="10" x1="17" y1="257" x2="17" y2="259"/>
<line fill="none" stroke="#1D2129" stroke-linecap="round" stroke-miterlimit="10" x1="19" y1="257" x2="19" y2="259"/>
<line fill="none" stroke="#1D2129" stroke-linecap="round" stroke-miterlimit="10" x1="21" y1="257" x2="21" y2="259"/>
<line fill="none" stroke="#1D2129" stroke-linecap="round" stroke-miterlimit="10" x1="23" y1="257" x2="23" y2="259"/>
<line fill="none" stroke="#1D2129" stroke-linecap="round" stroke-miterlimit="10" x1="25" y1="257" x2="25" y2="259"/>
<line fill="none" stroke="#1D2129" stroke-linecap="round" stroke-miterlimit="10" x1="27" y1="257" x2="27" y2="259"/>
<line fill="none" stroke="#1D2129" stroke-linecap="round" stroke-miterlimit="10" x1="29" y1="257" x2="29" y2="259"/>
<line fill="none" stroke="#1D2129" stroke-linecap="round" stroke-miterlimit="10" x1="31" y1="257" x2="31" y2="259"/>
<line fill="none" stroke="#1D2129" stroke-linecap="round" stroke-miterlimit="10" x1="33" y1="257" x2="33" y2="259"/>
<line fill="none" stroke="#1D2129" stroke-linecap="round" stroke-miterlimit="10" x1="35" y1="257" x2="35" y2="259"/>
<line fill="none" stroke="#1D2129" stroke-linecap="round" stroke-miterlimit="10" x1="37" y1="257" x2="37" y2="259"/>
<line fill="none" stroke="#1D2129" stroke-linecap="round" stroke-miterlimit="10" x1="39" y1="257" x2="39" y2="259"/>
<line fill="none" stroke="#1D2129" stroke-linecap="round" stroke-miterlimit="10" x1="41" y1="257" x2="41" y2="259"/>
<line fill="none" stroke="#1D2129" stroke-linecap="round" stroke-miterlimit="10" x1="43" y1="257" x2="43" y2="259"/>
<line fill="none" stroke="#1D2129" stroke-linecap="round" stroke-miterlimit="10" x1="45" y1="257" x2="45" y2="259"/>
<line fill="none" stroke="#1D2129" stroke-linecap="round" stroke-miterlimit="10" x1="47" y1="257" x2="47" y2="259"/>
<g>
	<path fill="#48BACC" d="M14.5,293v-13.059c0-3.006,2.238-5.441,5-5.441l0,0c2.762,0,5,2.436,5,5.441V293"/>
	<path fill="#1D2129" d="M25,293.5c-0.276,0-0.5-0.224-0.5-0.5v-13.059c0-2.725-2.019-4.941-4.5-4.941s-4.5,2.217-4.5,4.941V293
		c0,0.276-0.224,0.5-0.5,0.5s-0.5-0.224-0.5-0.5v-13.059c0-3.276,2.468-5.941,5.5-5.941s5.5,2.665,5.5,5.941V293
		C25.5,293.276,25.276,293.5,25,293.5z"/>
</g>
<g>
	<rect x="29.5" y="276" fill="#48BACC" width="15" height="12"/>
	<polygon fill="#1D2129" points="28.5,275 28.5,276 30,276 44.5,276 44.5,288 44.5,289 45.5,289 45.5,275 	"/>
	<polygon fill="#1D2129" points="29.5,288 29.5,276 28.5,276 28.5,289 44.5,289 44.5,288 	"/>
</g>
<g>
	<path fill="#C9CACA" d="M10.5,266v6.122c1-0.531,1.035-1.202,1.035-1.943c0,1.696,1.59,3.071,3.394,3.071
		c1.805,0,3.297-1.375,3.297-3.071c0,1.696,1.445,3.071,3.249,3.071c1.805,0,3.225-1.375,3.225-3.071
		c0,1.696,1.408,3.071,3.212,3.071s3.206-1.375,3.206-3.071c0,1.696,1.399,3.071,3.202,3.071c1.805,0,3.203-1.375,3.203-3.071
		c0,1.696,1.396,3.071,3.2,3.071s3.2-1.375,3.2-3.071c0,1.696,1.056,3.071,2.858,3.071c1.484,0,2.719-0.936,2.719-2.21V266H10.5z"/>
</g>
<g>
	<path fill="#EF8E00" d="M4.5,265v4.179c0,1.696,1.863,3.071,3.625,3.071s3.375-1.375,3.375-3.071c0,1.696,1.488,3.071,3.25,3.071
		s3.188-1.375,3.188-3.071c0,1.696,1.395,3.071,3.156,3.071s3.141-1.375,3.141-3.071c0,1.696,1.371,3.071,3.133,3.071
		s3.129-1.375,3.129-3.071c0,1.696,1.365,3.071,3.127,3.071s3.127-1.375,3.127-3.071c0,1.696,1.363,3.071,3.125,3.071
		S43,270.875,43,269.179c0,1.696,1.363,3.071,3.125,3.071s3.125-1.375,3.125-3.071c0,1.696,0.863,3.071,2.625,3.071
		s2.625-1.375,2.625-3.071V265"/>
	<path fill="#1D2129" d="M52.125,272.75c-1.347,0-2.375-0.688-3-1.735c-0.625,1.047-1.716,1.735-3.063,1.735
		s-2.469-0.688-3.094-1.735c-0.625,1.047-1.763,1.735-3.109,1.735s-2.492-0.688-3.117-1.735c-0.625,1.047-1.774,1.735-3.121,1.735
		s-2.498-0.688-3.123-1.735c-0.625,1.047-1.777,1.735-3.124,1.735s-2.5-0.688-3.125-1.735c-0.625,1.047-1.778,1.735-3.125,1.735
		s-2.5-0.688-3.125-1.735c-0.625,1.047-1.778,1.735-3.125,1.735s-2.5-0.688-3.125-1.735c-0.625,1.047-2.028,1.735-3.375,1.735
		c-2.032,0-3.875-1.568-3.875-3.571V265h1v4.179c0,1.441,1.403,2.571,2.875,2.571s2.75-1.13,2.75-2.571c0-0.276,0.286-0.5,0.563-0.5
		s0.531,0.224,0.531,0.5c0,1.441,1.169,2.571,2.641,2.571s2.633-1.13,2.633-2.571c0-0.276,0.228-0.5,0.504-0.5
		s0.502,0.224,0.502,0.5c0,1.441,1.154,2.571,2.626,2.571s2.625-1.13,2.625-2.571c0-0.276,0.224-0.5,0.5-0.5s0.5,0.224,0.5,0.5
		c0,1.441,1.153,2.571,2.625,2.571S30,270.62,30,269.179c0-0.276,0.224-0.5,0.5-0.5s0.5,0.224,0.5,0.5
		c0,1.441,1.153,2.571,2.625,2.571s2.625-1.13,2.625-2.571c0-0.276,0.224-0.5,0.5-0.5s0.5,0.224,0.5,0.5
		c0,1.441,1.153,2.571,2.625,2.571s2.625-1.13,2.625-2.571c0-0.276,0.224-0.5,0.5-0.5s0.5,0.224,0.5,0.5
		c0,1.441,1.153,2.571,2.625,2.571s2.625-1.13,2.625-2.571c0-0.276,0.224-0.5,0.5-0.5s0.5,0.224,0.5,0.5
		c0,1.441,0.903,2.571,2.375,2.571s2.375-1.13,2.375-2.571V265h1v4.179C55.5,271.182,54.157,272.75,52.125,272.75z"/>
</g>
<g>
	<polygon fill="#F3C200" points="55.995,265.656 4.505,265.5 9.575,259.139 50.968,259.321 	"/>
	<path fill="#1D2129" d="M55.995,266c-0.001,0-0.001,0-0.002,0l-51.49-0.078c-0.192-0.001-0.369-0.071-0.453-0.243
		c-0.084-0.173-0.061-0.357,0.058-0.508L9.178,259c0.096-0.12,0.242,0,0.396,0c0.001,0,0.002,0,0.002,0l41.393,0.002
		c0.155,0.001,0.3-0.02,0.396,0.102l5.027,6.289c0.119,0.15,0.141,0.255,0.057,0.427C56.364,265.991,56.188,266,55.995,266z
		 M5.544,265.003l49.41,0.15l-4.232-5.333L9.818,259.64L5.544,265.003z"/>
</g>
<polyline fill="none" stroke="#FFFFFF" stroke-linecap="round" stroke-linejoin="round" stroke-miterlimit="10" points="
	42.422,280.797 42.563,280.938 42.703,281.078 42.844,281.219 42.984,281.359 43.125,281.5 "/>
<polyline fill="none" stroke="#FFFFFF" stroke-linecap="round" stroke-linejoin="round" stroke-miterlimit="10" points="38.625,277 
	38.766,277.141 38.906,277.281 39.047,277.422 39.188,277.563 39.328,277.703 39.469,277.844 39.609,277.984 39.75,278.125 
	39.891,278.266 40.031,278.406 40.172,278.547 40.313,278.688 40.453,278.828 40.594,278.969 40.734,279.109 40.875,279.25 "/>
<polyline fill="none" stroke="#FFFFFF" stroke-linecap="round" stroke-linejoin="round" stroke-miterlimit="10" points="
	38.639,281.014 38.906,281.281 39.174,281.549 39.441,281.816 39.709,282.084 39.977,282.352 40.244,282.619 40.512,282.887 
	40.779,283.154 41.047,283.422 41.314,283.689 41.582,283.957 41.85,284.225 42.117,284.492 42.385,284.76 42.652,285.027 
	42.92,285.295 43.188,285.563 "/>
<polyline fill="none" stroke="#FFFFFF" stroke-linecap="round" stroke-linejoin="round" stroke-miterlimit="10" points="34.625,277 
	34.893,277.268 35.16,277.535 35.428,277.803 35.695,278.07 35.963,278.338 36.23,278.605 36.498,278.873 36.766,279.141 
	37.033,279.408 37.301,279.676 "/>
<polyline fill="none" stroke="#FFFFFF" stroke-linecap="round" stroke-linejoin="round" stroke-miterlimit="10" points="
	34.504,280.879 34.775,281.15 35.047,281.422 35.317,281.692 35.589,281.964 35.859,282.234 36.131,282.506 36.402,282.777 
	36.673,283.048 36.944,283.319 37.216,283.591 37.486,283.861 37.757,284.132 38.029,284.404 38.3,284.675 38.57,284.945 
	38.842,285.217 39.113,285.488 39.384,285.759 39.654,286.029 39.927,286.302 40.197,286.572 "/>
<polyline fill="none" stroke="#FFFFFF" stroke-linecap="round" stroke-linejoin="round" stroke-miterlimit="10" points="
	31.522,277.897 31.793,278.168 32.064,278.44 32.336,278.711 32.606,278.981 32.878,279.253 33.149,279.524 "/>
<polyline fill="none" stroke="#FFFFFF" stroke-linecap="round" stroke-linejoin="round" stroke-miterlimit="10" points="
	23.773,284.651 23.773,284.85 23.773,285.049 23.773,285.248 23.773,285.446 23.773,285.646 "/>
</svg>
